<?xml version="1.0" encoding="UTF-8"?>
<svg version="1.1" xmlns="http://www.w3.org/2000/svg" width="500" height="500">
<path d="M0 0 C12.54 0 25.08 0 38 0 C42 6 42 6 42 8 C42.66 8 43.32 8 44 8 C45.0859375 9.5546875 45.0859375 9.5546875 46.375 11.875 C49.27975869 16.88077347 52.40293099 21.69584032 55.625 26.5 C56.13369629 27.26111084 56.64239258 28.02222168 57.16650391 28.80639648 C59.90859602 32.90253997 62.66914769 36.98547136 65.4453125 41.05859375 C65.99880371 41.87585938 66.55229492 42.693125 67.12255859 43.53515625 C68.1899346 45.11076079 69.26299602 46.68253193 70.34228516 48.25 C70.8222998 48.96027344 71.30231445 49.67054688 71.796875 50.40234375 C72.43641113 51.33808228 72.43641113 51.33808228 73.08886719 52.29272461 C74 54 74 54 74 57 C74.66 57 75.32 57 76 57 C77.40496832 59.03224347 78.67714088 61.06613209 79.9375 63.1875 C84.67541781 70.9628043 89.6012317 78.60636612 94.58889771 86.22280884 C95.44285707 87.52734458 96.29563033 88.83265755 97.14718628 90.13876343 C98.36367456 92.00443322 99.58365666 93.86776963 100.8046875 95.73046875 C101.51608887 96.81739014 102.22749023 97.90431152 102.96044922 99.02416992 C104.85986221 101.79553034 106.86378978 104.40851711 109 107 C113.14699896 99.94127836 117.14813825 92.85415364 120.75 85.5 C124.00644899 78.8552286 127.49504196 72.35772896 131.0625 65.875 C135.00741091 58.70415916 138.81415362 51.50694809 142.421875 44.16015625 C144.60775552 39.78298461 146.95238788 35.49721981 149.2890625 31.19921875 C151.96926607 26.18760523 154.49167847 21.09933499 157 16 C157.66 16 158.32 16 159 16 C159 14.68 159 13.36 159 12 C159.66 12 160.32 12 161 12 C161.0825 11.319375 161.165 10.63875 161.25 9.9375 C162 7 162 7 166 0 C181.84 0 197.68 0 214 0 C216.14167663 4.28335326 217.7423395 7.89865447 219.1875 12.375 C219.61813362 13.69542864 220.0491516 15.01573197 220.48046875 16.3359375 C220.71813965 17.06780273 220.95581055 17.79966797 221.20068359 18.55371094 C222.77667957 23.37700957 224.39232599 28.18718902 226 33 C226.64597974 34.93745119 227.29181323 36.87495115 227.9375 38.8125 C229.01467555 42.04428913 230.09206029 45.27600796 231.16992188 48.50756836 C233.11006494 54.32531567 235.04852713 60.14359537 236.97956848 65.96437073 C242.47350901 82.52324896 248.02466053 99.06055365 253.6875 115.5625 C267.06609108 154.55854602 267.06609108 154.55854602 273.015625 173.89453125 C273.81761449 176.42461714 274.67172349 178.89939926 275.625 181.375 C277.00590267 185.01556158 278.10881956 188.66309854 279.15625 192.41015625 C280.00059219 195.00181768 281.06114032 197.44620434 282.15283203 199.94116211 C283.87780791 204.13330089 285.25910379 208.44990119 286.6875 212.75 C287.00783203 213.69488281 287.32816406 214.63976562 287.65820312 215.61328125 C287.96048828 216.51949219 288.26277344 217.42570313 288.57421875 218.359375 C288.98546997 219.58865723 288.98546997 219.58865723 289.4050293 220.84277344 C290 223 290 223 290 226 C277.46 226 264.92 226 252 226 C249.65307866 220.13269664 247.40301126 214.46788899 245.4375 208.5 C245.11954468 207.53646606 245.11954468 207.53646606 244.79516602 206.5534668 C243.37141165 202.21256648 242.03857906 197.85005615 240.74609375 193.46875 C238.94159998 187.4978596 237.10463566 181.52797572 234.60546875 175.80859375 C232.53732597 171.06253796 230.94337289 166.15964241 229.3125 161.25 C228.99216797 160.30511719 228.67183594 159.36023438 228.34179688 158.38671875 C228.03951172 157.48050781 227.73722656 156.57429687 227.42578125 155.640625 C227.01453003 154.41134277 227.01453003 154.41134277 226.5949707 153.15722656 C226 151 226 151 226 148 C214.95970418 147.97676648 203.91941424 147.95902897 192.87909889 147.94818783 C187.75190997 147.94298302 182.62473785 147.93592924 177.49755859 147.92456055 C172.54384574 147.913646 167.59014898 147.90770509 162.63642502 147.90512276 C160.75233075 147.90328389 158.8682373 147.8996932 156.98414993 147.89426994 C141.52251974 146.56455318 141.52251974 146.56455318 127.87426758 150.91088867 C127.46845459 151.7382251 127.0626416 152.56556152 126.64453125 153.41796875 C126.17128418 154.33545898 125.69803711 155.25294922 125.21044922 156.19824219 C124.74912598 157.18469727 124.28780273 158.17115234 123.8125 159.1875 C123.30477051 160.19329102 122.79704102 161.19908203 122.27392578 162.23535156 C120.81442181 165.14129906 119.40296052 168.06644159 118 171 C117.34870224 172.31561541 116.69434052 173.62972458 116.03515625 174.94140625 C114.93804396 177.1278865 113.85060651 179.31925113 112.7734375 181.515625 C110.22353098 186.5255735 107.45808776 191.40851432 104.7019043 196.30712891 C102.06277922 201.01988832 99.56066107 205.77321878 97.1875 210.625 C91.21190068 222.78809932 91.21190068 222.78809932 88 226 C85.04294679 226.08868299 82.10934944 226.11520296 79.15234375 226.09765625 C77.82270348 226.09553383 77.82270348 226.09553383 76.46620178 226.09336853 C73.62326746 226.08775215 70.78041069 226.07519691 67.9375 226.0625 C66.01497509 226.05748711 64.09244896 226.05292384 62.16992188 226.04882812 C57.44658451 226.03777741 52.72330542 226.02050183 48 226 C50.98875287 216.55489769 50.98875287 216.55489769 53.453125 212.23828125 C54.12903687 211.03643188 54.12903687 211.03643188 54.81860352 209.81030273 C55.29096436 208.98602783 55.7633252 208.16175293 56.25 207.3125 C57.24553776 205.54021146 58.23902493 203.7667695 59.23046875 201.9921875 C59.70919434 201.13592773 60.18791992 200.27966797 60.68115234 199.39746094 C62.99140645 195.19777651 65.08792947 190.90246008 67.203125 186.6015625 C69.33127022 182.29921881 71.57324299 178.05776703 73.8125 173.8125 C74.22798096 173.01948486 74.64346191 172.22646973 75.0715332 171.40942383 C77.30676889 167.15490693 79.58640841 162.9321777 81.93359375 158.73828125 C82.40498779 157.88194092 82.87638184 157.02560059 83.36206055 156.14331055 C84.26929335 154.49720565 85.1908106 152.85887195 86.12817383 151.22973633 C88.63714116 146.9053086 88.63714116 146.9053086 88.3046875 142.10546875 C87.87414062 141.41066406 87.44359375 140.71585938 87 140 C86.64141484 138.67323492 86.2981424 137.34164079 86 136 C85.34 136 84.68 136 84 136 C82.59765625 133.98828125 82.59765625 133.98828125 81.0625 131.3125 C80.55847656 130.44238281 80.05445313 129.57226562 79.53515625 128.67578125 C79.02855469 127.79277344 78.52195312 126.90976562 78 126 C77.44183594 125.10667969 76.88367188 124.21335937 76.30859375 123.29296875 C75 121 75 121 75 119 C74.34 119 73.68 119 73 119 C69 112.25 69 112.25 69 110 C68.34 110 67.68 110 67 110 C65.84114221 108.23483259 64.77371125 106.40933043 63.75 104.5625 C60.70709252 99.20148435 57.46950549 94.09018153 54 89 C52.36916436 86.58722728 50.74646403 84.1690774 49.125 81.75 C48.73852295 81.17854248 48.3520459 80.60708496 47.95385742 80.01831055 C45.13995942 75.82130041 42.46885811 71.54259012 39.82763672 67.23535156 C39.45851669 66.63441681 39.08939667 66.03348206 38.70909119 65.41433716 C37.80555554 63.94320164 36.90270785 62.47164362 36 61 C35.99576806 61.8442903 35.99153612 62.68858061 35.98717594 63.55845547 C35.88401624 84.07134322 35.77540084 104.58419569 35.66066074 125.09702206 C35.60530658 135.01673626 35.55182104 144.93645406 35.50268555 154.85620117 C35.45987051 163.49899238 35.4135994 172.14175688 35.36312145 180.78450686 C35.33649884 185.36370895 35.31164532 189.94290567 35.29092598 194.5221386 C35.27139294 198.82714303 35.24725936 203.13209651 35.21950912 207.43705559 C35.21012097 209.02177 35.20245208 210.60649562 35.19658089 212.19122696 C35.18834953 214.34543154 35.1740816 216.49951143 35.15821838 218.65367126 C35.15176583 219.86214187 35.14531328 221.07061247 35.1386652 222.31570339 C35 225 35 225 34 226 C22.78 226 11.56 226 0 226 C0 151.42 0 76.84 0 0 Z M187 39 C185.98400252 40.93039521 184.96802783 42.86080241 183.95214844 44.79125977 C183.0573407 46.49116401 182.16215006 48.19086674 181.26660156 49.89038086 C178.9423096 54.30256174 176.6237909 58.71753788 174.3203125 63.140625 C170.53794639 70.3904569 166.74284232 77.56013968 162.44921875 84.5234375 C156.55958955 93.80894523 156.55958955 93.80894523 154 104 C153.34 104 152.68 104 152 104 C150.68 106.97 149.36 109.94 148 113 C169.45 113 190.9 113 213 113 C212.23921032 108.43526191 211.36568089 104.80421766 209.875 100.5 C207.2822313 92.93402433 204.86908768 85.31641205 202.49951172 77.67773438 C200.91508935 72.6344898 199.1202161 67.8393633 197 63 C196.46752839 61.34342167 195.96343717 59.67720117 195.5 58 C194.63504806 55.0066323 193.70948407 52.15688649 192.4375 49.3125 C190.95160302 45.88847653 189.95521334 42.60041952 189 39 C188.34 39 187.68 39 187 39 Z " fill="#191917" transform="translate(117,137)"/>
<path d="M0 0 C1.10868317 3.32604951 1.54177532 6.53058454 2 10 C-1.6441774 12.4294516 -3.71241272 12.16179575 -8 12 C-7.6875 9.625 -7.6875 9.625 -7 7 C-6.01 6.34 -5.02 5.68 -4 5 C-3.67 4.01 -3.34 3.02 -3 2 C-2.01 1.34 -1.02 0.68 0 0 Z " fill="#21201E" transform="translate(174,349)"/>
<path d="M0 0 C2.94721162 2.74395564 5.19168608 5.38337216 7 9 C6.67 9.66 6.34 10.32 6 11 C5.34 11 4.68 11 4 11 C2.66216607 11.31478446 1.32796291 11.64587656 0 12 C-0.66 10.68 -1.32 9.36 -2 8 C-0.68 7.34 0.64 6.68 2 6 C2 5.34 2 4.68 2 4 C1.01 3.67 0.02 3.34 -1 3 C-0.67 2.01 -0.34 1.02 0 0 Z " fill="#3C3A39" transform="translate(202,210)"/>
<path d="M0 0 C1.0625 1.8125 1.0625 1.8125 2 4 C1.67 4.99 1.34 5.98 1 7 C0.34 7 -0.32 7 -1 7 C-1.103125 7.556875 -1.20625 8.11375 -1.3125 8.6875 C-2.14178408 11.4769101 -3.34299056 13.6139064 -5 16 C-5.66 16 -6.32 16 -7 16 C-7 16.99 -7 17.98 -7 19 C-7.66 19 -8.32 19 -9 19 C-7.39369175 14.75707468 -5.4231838 10.72974893 -3.375 6.6875 C-3.05015625 6.04232422 -2.7253125 5.39714844 -2.390625 4.73242188 C-1.59558044 3.15402459 -0.79804366 1.57688306 0 0 Z " fill="#4B4B49" transform="translate(252,195)"/>
<path d="M0 0 C1 3 1 3 -0.4375 6.1875 C-1.2109375 7.5796875 -1.2109375 7.5796875 -2 9 C-3.32 8.34 -4.64 7.68 -6 7 C-5.25 4.0625 -5.25 4.0625 -4 1 C-1.875 0.125 -1.875 0.125 0 0 Z " fill="#2D2C2A" transform="translate(279,220)"/>
<path d="M0 0 C0.66 0.33 1.32 0.66 2 1 C2 1.99 2 2.98 2 4 C2.66 4 3.32 4 4 4 C4.99 5.98 5.98 7.96 7 10 C4.36 9.34 1.72 8.68 -1 8 C-0.67 5.36 -0.34 2.72 0 0 Z " fill="#4C4C4A" transform="translate(189,190)"/>
<path d="M0 0 C1.32 0.33 2.64 0.66 4 1 C3.34 1 2.68 1 2 1 C1.71125 1.763125 1.4225 2.52625 1.125 3.3125 C0 6 0 6 -2 9 C-2 8.34 -2 7.68 -2 7 C-2.66 6.67 -3.32 6.34 -4 6 C-3.34 4.68 -2.68 3.36 -2 2 C-1.34 2 -0.68 2 0 2 C0 1.34 0 0.68 0 0 Z " fill="#4B4A49" transform="translate(302,175)"/>
<path d="M0 0 C0.66 0.66 1.32 1.32 2 2 C1.875 4 1.875 4 1 6 C-1.0625 7.25 -1.0625 7.25 -3 8 C-3 8.99 -3 9.98 -3 11 C-3.66 10.67 -4.32 10.34 -5 10 C-3.35 6.7 -1.7 3.4 0 0 Z " fill="#5A5A58" transform="translate(188,316)"/>
<path d="M0 0 C1.98 0.99 3.96 1.98 6 3 C6 5.31 6 7.62 6 10 C4.5 8 4.5 8 3 6 C2.443125 5.29875 1.88625 4.5975 1.3125 3.875 C0 2 0 2 0 0 Z " fill="#5D5C5B" transform="translate(196,263)"/>
<path d="M0 0 C2.3125 -0.3125 2.3125 -0.3125 5 0 C6.875 2.375 6.875 2.375 8 5 C7.67 5.66 7.34 6.32 7 7 C3.42895561 5.12050295 1.45255699 3.82946843 0 0 Z " fill="#424240" transform="translate(216,237)"/>
<path d="M0 0 C0.99 0.33 1.98 0.66 3 1 C1.90931332 4.77545388 1.0916909 7.47043472 -2 10 C-2.33 8.02 -2.66 6.04 -3 4 C-2.67 4.66 -2.34 5.32 -2 6 C-1.34 6 -0.68 6 0 6 C0 4.02 0 2.04 0 0 Z " fill="#585655" transform="translate(296,185)"/>
<path d="M0 0 C1.98 0.99 1.98 0.99 4 2 C4 4.31 4 6.62 4 9 C1.49701566 6.06171403 0.53069061 3.82097239 0 0 Z " fill="#464544" transform="translate(170,221)"/>
<path d="M0 0 C0.88492145 2.47778006 1.11637742 3.66056586 0.25 6.1875 C-1 8 -1 8 -4 9 C-2.80100302 5.9168649 -1.52299523 2.93720508 0 0 Z " fill="#555553" transform="translate(181,330)"/>
<path d="M0 0 C0.99 0.33 1.98 0.66 3 1 C2.67 2.65 2.34 4.3 2 6 C1.01 5.67 0.02 5.34 -1 5 C-0.67 3.35 -0.34 1.7 0 0 Z " fill="#2A2A29" transform="translate(227,313)"/>
<path d="M0 0 C0.66 0.99 1.32 1.98 2 3 C1.67 3.99 1.34 4.98 1 6 C-1.0625 6.6875 -1.0625 6.6875 -3 7 C-1.125 1.125 -1.125 1.125 0 0 Z " fill="#626261" transform="translate(204,286)"/>
</svg>
